<svg xmlns="http://www.w3.org/2000/svg" xmlns:xlink="http://www.w3.org/1999/xlink" contentStyleType="text/css" data-diagram-type="DESCRIPTION" height="697px" preserveAspectRatio="none" style="width:1299px;height:697px;background:#FDFDFD;" version="1.1" viewBox="0 0 1299 697" width="1299px" zoomAndPan="magnify"><title>&lt;size:18&gt;&lt;b&gt;Layered Architecture - MapReduce Workflow for Social Media Analytics&lt;/b&gt;&lt;/size&gt;</title><defs><filter height="300%" id="f7tn13zsh8o9n" width="300%" x="-1" y="-1"><feGaussianBlur result="blurOut" stdDeviation="2"/><feColorMatrix in="blurOut" result="blurOut2" type="matrix" values="0 0 0 0 0 0 0 0 0 0 0 0 0 0 0 0 0 0 .4 0"/><feOffset dx="4" dy="4" in="blurOut2" result="blurOut3"/><feBlend in="SourceGraphic" in2="blurOut3" mode="normal"/></filter></defs><g><rect fill="#FDFDFD" height="697" style="stroke:none;stroke-width:1;" width="1299" x="0" y="0"/><g class="title" data-source-line="7"><text fill="#000000" font-family="sans-serif" font-size="18" font-weight="bold" lengthAdjust="spacing" textLength="723.0674" x="280.9663" y="26.708">Layered Architecture - MapReduce Workflow for Social Media Analytics</text></g><!--cluster <b>Input Layer</b>--><g class="cluster" data-entity="&lt;b&gt;Input Layer&lt;/b&gt;" data-source-line="9" data-uid="ent0002" id="cluster_&lt;b&gt;Input Layer&lt;/b&gt;"><rect fill="#E6F7FF" filter="url(#f7tn13zsh8o9n)" height="112.6" rx="2.5" ry="2.5" style="stroke:#181818;stroke-width:1;" width="379" x="264" y="48.9531"/><text fill="#000000" font-family="sans-serif" font-size="14" font-weight="bold" lengthAdjust="spacing" textLength="90.624" x="408.188" y="63.9482">Input Layer</text></g><!--cluster <b>Processing Layer</b>--><g class="cluster" data-entity="&lt;b&gt;Processing Layer&lt;/b&gt;" data-source-line="14" data-uid="ent0005" id="cluster_&lt;b&gt;Processing Layer&lt;/b&gt;"><rect fill="#FFF3E6" filter="url(#f7tn13zsh8o9n)" height="266.89" rx="2.5" ry="2.5" style="stroke:#181818;stroke-width:1;" width="1013" x="7" y="185.5531"/><text fill="#000000" font-family="sans-serif" font-size="14" font-weight="bold" lengthAdjust="spacing" textLength="134.7979" x="446.1011" y="200.5482">Processing Layer</text></g><!--cluster Job 1: Data Cleansing--><g class="cluster" data-entity="Job 1: Data Cleansing" data-source-line="15" data-uid="ent0006" id="cluster_Job 1: Data Cleansing"><rect fill="#E0F7E6" filter="url(#f7tn13zsh8o9n)" height="191.74" rx="2.5" ry="2.5" style="stroke:#181818;stroke-width:1;" width="185" x="31" y="236.7031"/><text fill="#000000" font-family="sans-serif" font-size="14" font-weight="bold" lengthAdjust="spacing" textLength="169.1211" x="38.9395" y="251.6982">Job 1: Data Cleansing</text></g><!--cluster Job 2: Action Aggregation--><g class="cluster" data-entity="Job 2: Action Aggregation" data-source-line="20" data-uid="ent0009" id="cluster_Job 2: Action Aggregation"><rect fill="#FCE6F7" filter="url(#f7tn13zsh8o9n)" height="191.74" rx="2.5" ry="2.5" style="stroke:#181818;stroke-width:1;" width="218" x="240" y="236.7031"/><text fill="#000000" font-family="sans-serif" font-size="14" font-weight="bold" lengthAdjust="spacing" textLength="202.8428" x="247.5786" y="251.6982">Job 2: Action Aggregation</text></g><!--cluster Job 3: Trending Detection--><g class="cluster" data-entity="Job 3: Trending Detection" data-source-line="25" data-uid="ent0012" id="cluster_Job 3: Trending Detection"><rect fill="#E6E6FA" filter="url(#f7tn13zsh8o9n)" height="191.74" rx="2.5" ry="2.5" style="stroke:#181818;stroke-width:1;" width="218" x="482" y="236.7031"/><text fill="#000000" font-family="sans-serif" font-size="14" font-weight="bold" lengthAdjust="spacing" textLength="202.2139" x="489.8931" y="251.6982">Job 3: Trending Detection</text></g><!--cluster Job 4: Dataset Join--><g class="cluster" data-entity="Job 4: Dataset Join" data-source-line="30" data-uid="ent0015" id="cluster_Job 4: Dataset Join"><rect fill="#F2E6FF" filter="url(#f7tn13zsh8o9n)" height="199.89" rx="2.5" ry="2.5" style="stroke:#181818;stroke-width:1;" width="272" x="724" y="228.5531"/><text fill="#000000" font-family="sans-serif" font-size="14" font-weight="bold" lengthAdjust="spacing" textLength="146.1318" x="786.9341" y="243.5482">Job 4: Dataset Join</text></g><!--cluster <b>Storage Layer</b>--><g class="cluster" data-entity="&lt;b&gt;Storage Layer&lt;/b&gt;" data-source-line="37" data-uid="ent0019" id="cluster_&lt;b&gt;Storage Layer&lt;/b&gt;"><rect fill="#D9F2D9" filter="url(#f7tn13zsh8o9n)" height="112.59" rx="2.5" ry="2.5" style="stroke:#181818;stroke-width:1;" width="771" x="516" y="476.4431"/><text fill="#000000" font-family="sans-serif" font-size="14" font-weight="bold" lengthAdjust="spacing" textLength="111.0293" x="845.9854" y="491.4382">Storage Layer</text></g><!--cluster <b>Monitoring & Optimization</b>--><g class="cluster" data-entity="&lt;b&gt;Monitoring &amp; Optimization&lt;/b&gt;" data-source-line="44" data-uid="ent0024" id="cluster_&lt;b&gt;Monitoring &amp; Optimization&lt;/b&gt;"><rect fill="#FFEFDB" filter="url(#f7tn13zsh8o9n)" height="196.24" rx="2.5" ry="2.5" style="stroke:#181818;stroke-width:1;" width="424" x="50" y="489.0931"/><text fill="#000000" font-family="sans-serif" font-size="14" font-weight="bold" lengthAdjust="spacing" textLength="209.7471" x="157.1265" y="504.0882">Monitoring &amp; Optimization</text></g><!--entity logs--><g class="entity" data-entity="logs" data-source-line="10" data-uid="ent0003" id="entity_logs"><path d="M280.06,93.9531 C280.06,83.9531 364.9955,83.9531 364.9955,83.9531 C364.9955,83.9531 449.9311,83.9531 449.9311,93.9531 L449.9311,135.5469 C449.9311,145.5469 364.9955,145.5469 364.9955,145.5469 C364.9955,145.5469 280.06,145.5469 280.06,135.5469 L280.06,93.9531" fill="#F1F1F1" filter="url(#f7tn13zsh8o9n)" style="stroke:#181818;stroke-width:0.5;"/><path d="M280.06,93.9531 C280.06,103.9531 364.9955,103.9531 364.9955,103.9531 C364.9955,103.9531 449.9311,103.9531 449.9311,93.9531" fill="none" style="stroke:#181818;stroke-width:0.5;"/><text fill="#000000" font-family="sans-serif" font-size="14" lengthAdjust="spacing" textLength="149.8711" x="290.06" y="120.9482">social_media_logs.txt</text><text fill="#000000" font-family="sans-serif" font-size="14" lengthAdjust="spacing" textLength="99.2783" x="315.3564" y="137.2451">(Raw Log File)</text></g><!--entity profiles--><g class="entity" data-entity="profiles" data-source-line="11" data-uid="ent0004" id="entity_profiles"><path d="M484.84,93.9531 C484.84,83.9531 555.9977,83.9531 555.9977,83.9531 C555.9977,83.9531 627.1554,83.9531 627.1554,93.9531 L627.1554,135.5469 C627.1554,145.5469 555.9977,145.5469 555.9977,145.5469 C555.9977,145.5469 484.84,145.5469 484.84,135.5469 L484.84,93.9531" fill="#F1F1F1" filter="url(#f7tn13zsh8o9n)" style="stroke:#181818;stroke-width:0.5;"/><path d="M484.84,93.9531 C484.84,103.9531 555.9977,103.9531 555.9977,103.9531 C555.9977,103.9531 627.1554,103.9531 627.1554,93.9531" fill="none" style="stroke:#181818;stroke-width:0.5;"/><text fill="#000000" font-family="sans-serif" font-size="14" lengthAdjust="spacing" textLength="113.0732" x="499.4611" y="120.9482">user_profiles.txt</text><text fill="#000000" font-family="sans-serif" font-size="14" lengthAdjust="spacing" textLength="122.3154" x="494.84" y="137.2451">(User Profile Info)</text></g><!--entity cleanseMap--><g class="entity" data-entity="cleanseMap" data-source-line="16" data-uid="ent0007" id="entity_cleanseMap"><rect fill="#F1F1F1" filter="url(#f7tn13zsh8o9n)" height="36.2969" rx="2.5" ry="2.5" style="stroke:#181818;stroke-width:0.5;" width="132.8887" x="64.56" y="271.7031"/><text fill="#000000" font-family="sans-serif" font-size="14" lengthAdjust="spacing" textLength="112.8887" x="74.56" y="294.6982">Cleanse Mapper</text></g><!--entity cleanseReduce--><g class="entity" data-entity="cleanseReduce" data-source-line="17" data-uid="ent0008" id="entity_cleanseReduce"><rect fill="#F1F1F1" filter="url(#f7tn13zsh8o9n)" height="36.2969" rx="2.5" ry="2.5" style="stroke:#181818;stroke-width:0.5;" width="138.2549" x="61.87" y="376.1431"/><text fill="#000000" font-family="sans-serif" font-size="14" lengthAdjust="spacing" textLength="118.2549" x="71.87" y="399.1382">Cleanse Reducer</text></g><!--entity aggMap--><g class="entity" data-entity="aggMap" data-source-line="21" data-uid="ent0010" id="entity_aggMap"><rect fill="#F1F1F1" filter="url(#f7tn13zsh8o9n)" height="36.2969" rx="2.5" ry="2.5" style="stroke:#181818;stroke-width:0.5;" width="150.5391" x="289.73" y="271.7031"/><text fill="#000000" font-family="sans-serif" font-size="14" lengthAdjust="spacing" textLength="130.5391" x="299.73" y="294.6982">Aggregate Mapper</text></g><!--entity aggReduce--><g class="entity" data-entity="aggReduce" data-source-line="22" data-uid="ent0011" id="entity_aggReduce"><rect fill="#F1F1F1" filter="url(#f7tn13zsh8o9n)" height="36.2969" rx="2.5" ry="2.5" style="stroke:#181818;stroke-width:0.5;" width="155.9053" x="286.05" y="376.1431"/><text fill="#000000" font-family="sans-serif" font-size="14" lengthAdjust="spacing" textLength="135.9053" x="296.05" y="399.1382">Aggregate Reducer</text></g><!--entity trendMap--><g class="entity" data-entity="trendMap" data-source-line="26" data-uid="ent0013" id="entity_trendMap"><rect fill="#F1F1F1" filter="url(#f7tn13zsh8o9n)" height="36.2969" rx="2.5" ry="2.5" style="stroke:#181818;stroke-width:0.5;" width="139.5811" x="533.21" y="271.7031"/><text fill="#000000" font-family="sans-serif" font-size="14" lengthAdjust="spacing" textLength="119.5811" x="543.21" y="294.6982">Trending Mapper</text></g><!--entity trendReduce--><g class="entity" data-entity="trendReduce" data-source-line="27" data-uid="ent0014" id="entity_trendReduce"><rect fill="#F1F1F1" filter="url(#f7tn13zsh8o9n)" height="36.2969" rx="2.5" ry="2.5" style="stroke:#181818;stroke-width:0.5;" width="144.9473" x="529.53" y="376.1431"/><text fill="#000000" font-family="sans-serif" font-size="14" lengthAdjust="spacing" textLength="124.9473" x="539.53" y="399.1382">Trending Reducer</text></g><!--entity joinMap1--><g class="entity" data-entity="joinMap1" data-source-line="31" data-uid="ent0016" id="entity_joinMap1"><rect fill="#F1F1F1" filter="url(#f7tn13zsh8o9n)" height="52.5938" rx="2.5" ry="2.5" style="stroke:#181818;stroke-width:0.5;" width="102.708" x="739.65" y="263.5531"/><text fill="#000000" font-family="sans-serif" font-size="14" lengthAdjust="spacing" textLength="82.708" x="749.65" y="286.5482">Join Mapper</text><text fill="#000000" font-family="sans-serif" font-size="14" lengthAdjust="spacing" textLength="62.3027" x="759.8526" y="302.8451">(Profiles)</text></g><!--entity joinMap2--><g class="entity" data-entity="joinMap2" data-source-line="32" data-uid="ent0017" id="entity_joinMap2"><rect fill="#F1F1F1" filter="url(#f7tn13zsh8o9n)" height="52.5938" rx="2.5" ry="2.5" style="stroke:#181818;stroke-width:0.5;" width="102.708" x="877.65" y="263.5531"/><text fill="#000000" font-family="sans-serif" font-size="14" lengthAdjust="spacing" textLength="82.708" x="887.65" y="286.5482">Join Mapper</text><text fill="#000000" font-family="sans-serif" font-size="14" lengthAdjust="spacing" textLength="62.3096" x="897.8492" y="302.8451">(Actions)</text></g><!--entity joinReduce--><g class="entity" data-entity="joinReduce" data-source-line="33" data-uid="ent0018" id="entity_joinReduce"><rect fill="#F1F1F1" filter="url(#f7tn13zsh8o9n)" height="36.2969" rx="2.5" ry="2.5" style="stroke:#181818;stroke-width:0.5;" width="108.0742" x="739.96" y="376.1431"/><text fill="#000000" font-family="sans-serif" font-size="14" lengthAdjust="spacing" textLength="88.0742" x="749.96" y="399.1382">Join Reducer</text></g><!--entity cleanedData--><g class="entity" data-entity="cleanedData" data-source-line="38" data-uid="ent0020" id="entity_cleanedData"><path d="M898.15,521.4431 C898.15,511.4431 984.9962,511.4431 984.9962,511.4431 C984.9962,511.4431 1071.8424,511.4431 1071.8424,521.4431 L1071.8424,563.0369 C1071.8424,573.0369 984.9962,573.0369 984.9962,573.0369 C984.9962,573.0369 898.15,573.0369 898.15,563.0369 L898.15,521.4431" fill="#F1F1F1" filter="url(#f7tn13zsh8o9n)" style="stroke:#181818;stroke-width:0.5;"/><path d="M898.15,521.4431 C898.15,531.4431 984.9962,531.4431 984.9962,531.4431 C984.9962,531.4431 1071.8424,531.4431 1071.8424,521.4431" fill="none" style="stroke:#181818;stroke-width:0.5;"/><text fill="#000000" font-family="sans-serif" font-size="14" lengthAdjust="spacing" textLength="98.082" x="935.9552" y="548.4382">cleansed_logs</text><text fill="#000000" font-family="sans-serif" font-size="14" lengthAdjust="spacing" textLength="153.6924" x="908.15" y="564.7351">/output/cleansed_logs</text></g><!--entity actionData--><g class="entity" data-entity="actionData" data-source-line="39" data-uid="ent0021" id="entity_actionData"><path d="M1107.23,521.4431 C1107.23,511.4431 1188.9971,511.4431 1188.9971,511.4431 C1188.9971,511.4431 1270.7642,511.4431 1270.7642,521.4431 L1270.7642,563.0369 C1270.7642,573.0369 1188.9971,573.0369 1188.9971,573.0369 C1188.9971,573.0369 1107.23,573.0369 1107.23,563.0369 L1107.23,521.4431" fill="#F1F1F1" filter="url(#f7tn13zsh8o9n)" style="stroke:#181818;stroke-width:0.5;"/><path d="M1107.23,521.4431 C1107.23,531.4431 1188.9971,531.4431 1188.9971,531.4431 C1188.9971,531.4431 1270.7642,531.4431 1270.7642,521.4431" fill="none" style="stroke:#181818;stroke-width:0.5;"/><text fill="#000000" font-family="sans-serif" font-size="14" lengthAdjust="spacing" textLength="87.9238" x="1145.0352" y="548.4382">user_actions</text><text fill="#000000" font-family="sans-serif" font-size="14" lengthAdjust="spacing" textLength="143.5342" x="1117.23" y="564.7351">/output/user_actions</text></g><!--entity trendingData--><g class="entity" data-entity="trendingData" data-source-line="40" data-uid="ent0022" id="entity_trendingData"><path d="M532.07,521.4431 C532.07,511.4431 602.0041,511.4431 602.0041,511.4431 C602.0041,511.4431 671.9382,511.4431 671.9382,521.4431 L671.9382,563.0369 C671.9382,573.0369 602.0041,573.0369 602.0041,573.0369 C602.0041,573.0369 532.07,573.0369 532.07,563.0369 L532.07,521.4431" fill="#F1F1F1" filter="url(#f7tn13zsh8o9n)" style="stroke:#181818;stroke-width:0.5;"/><path d="M532.07,521.4431 C532.07,531.4431 602.0041,531.4431 602.0041,531.4431 C602.0041,531.4431 671.9382,531.4431 671.9382,521.4431" fill="none" style="stroke:#181818;stroke-width:0.5;"/><text fill="#000000" font-family="sans-serif" font-size="14" lengthAdjust="spacing" textLength="119.8682" x="542.07" y="548.4382">trending_content</text><text fill="#000000" font-family="sans-serif" font-size="14" lengthAdjust="spacing" textLength="114.8779" x="544.5651" y="564.7351">/output/trending</text></g><!--entity joinedData--><g class="entity" data-entity="joinedData" data-source-line="41" data-uid="ent0023" id="entity_joinedData"><path d="M706.57,521.4431 C706.57,511.4431 785.0012,511.4431 785.0012,511.4431 C785.0012,511.4431 863.4323,511.4431 863.4323,521.4431 L863.4323,563.0369 C863.4323,573.0369 785.0012,573.0369 785.0012,573.0369 C785.0012,573.0369 706.57,573.0369 706.57,563.0369 L706.57,521.4431" fill="#F1F1F1" filter="url(#f7tn13zsh8o9n)" style="stroke:#181818;stroke-width:0.5;"/><path d="M706.57,521.4431 C706.57,531.4431 785.0012,531.4431 785.0012,531.4431 C785.0012,531.4431 863.4323,531.4431 863.4323,521.4431" fill="none" style="stroke:#181818;stroke-width:0.5;"/><text fill="#000000" font-family="sans-serif" font-size="14" lengthAdjust="spacing" textLength="95.8945" x="737.0539" y="548.4382">joined_output</text><text fill="#000000" font-family="sans-serif" font-size="14" lengthAdjust="spacing" textLength="136.8623" x="716.57" y="564.7351">/output/joined_data</text></g><!--entity counters--><g class="entity" data-entity="counters" data-source-line="45" data-uid="ent0025" id="entity_counters"><rect fill="#F1F1F1" filter="url(#f7tn13zsh8o9n)" height="36.2969" rx="2.5" ry="2.5" style="stroke:#181818;stroke-width:0.5;" width="141.7002" x="298.15" y="524.0931"/><text fill="#000000" font-family="sans-serif" font-size="14" lengthAdjust="spacing" textLength="121.7002" x="308.15" y="547.0882">Hadoop Counters</text></g><!--entity yarn--><g class="entity" data-entity="yarn" data-source-line="46" data-uid="ent0026" id="entity_yarn"><rect fill="#F1F1F1" filter="url(#f7tn13zsh8o9n)" height="36.2969" rx="2.5" ry="2.5" style="stroke:#181818;stroke-width:0.5;" width="189.2852" x="66.36" y="633.0331"/><text fill="#000000" font-family="sans-serif" font-size="14" lengthAdjust="spacing" textLength="169.2852" x="76.36" y="656.0282">YARN ResourceManager</text></g><!--entity logsUI--><g class="entity" data-entity="logsUI" data-source-line="47" data-uid="ent0027" id="entity_logsUI"><rect fill="#F1F1F1" filter="url(#f7tn13zsh8o9n)" height="36.2969" rx="2.5" ry="2.5" style="stroke:#181818;stroke-width:0.5;" width="167.0273" x="290.49" y="633.0331"/><text fill="#000000" font-family="sans-serif" font-size="14" lengthAdjust="spacing" textLength="147.0273" x="300.49" y="656.0282">Job Logs &amp; History UI</text></g><!--link logs to cleanseMap--><g class="link" data-entity-1="logs" data-entity-2="cleanseMap" data-source-line="52" data-uid="lnk28" id="link_logs_cleanseMap"><path d="M279.86,115.3331 C212.95,115.3331 131,115.3331 131,115.3331 C131,115.3331 131,220.6931 131,265.5031" fill="none" id="logs-to-cleanseMap" style="stroke:#181818;stroke-width:1;"/><polygon fill="#181818" points="131,271.5031,135,262.5031,131,266.5031,127,262.5031,131,271.5031" style="stroke:#181818;stroke-width:1;"/></g><!--link cleanseMap to cleanseReduce--><g class="link" data-entity-1="cleanseMap" data-entity-2="cleanseReduce" data-source-line="53" data-uid="lnk29" id="link_cleanseMap_cleanseReduce"><path d="M131,308.0431 C131,327.0931 131,350.8531 131,369.9631" fill="none" id="cleanseMap-to-cleanseReduce" style="stroke:#181818;stroke-width:1;"/><polygon fill="#181818" points="131,375.9631,135,366.9631,131,370.9631,127,366.9631,131,375.9631" style="stroke:#181818;stroke-width:1;"/></g><!--link cleanseReduce to cleanedData--><g class="link" data-entity-1="cleanseReduce" data-entity-2="cleanedData" data-source-line="54" data-uid="lnk30" id="link_cleanseReduce_cleanedData"><path d="M133.24,412.8831 C133.24,433.0331 133.24,462.3331 133.24,462.3331 C133.24,462.3331 918.7,462.3331 918.7,462.3331 C918.7,462.3331 918.7,482.6831 918.7,505.1131" fill="none" id="cleanseReduce-to-cleanedData" style="stroke:#181818;stroke-width:1;"/><polygon fill="#181818" points="918.7,511.1131,922.7,502.1131,918.7,506.1131,914.7,502.1131,918.7,511.1131" style="stroke:#181818;stroke-width:1;"/></g><!--link cleanedData to aggMap--><g class="link" data-entity-1="cleanedData" data-entity-2="aggMap" data-source-line="56" data-uid="lnk31" id="link_cleanedData_aggMap"><path d="M939.25,511.1231 C939.25,458.2031 939.25,356.3331 939.25,356.3331 C939.25,356.3331 390.09,356.3331 390.09,356.3331 C390.09,356.3331 390.09,334.0431 390.09,314.3731" fill="none" id="cleanedData-to-aggMap" style="stroke:#181818;stroke-width:1;"/><polygon fill="#181818" points="390.09,308.3731,386.09,317.3731,390.09,313.3731,394.09,317.3731,390.09,308.3731" style="stroke:#181818;stroke-width:1;"/></g><!--link aggMap to aggReduce--><g class="link" data-entity-1="aggMap" data-entity-2="aggReduce" data-source-line="57" data-uid="lnk32" id="link_aggMap_aggReduce"><path d="M339.91,308.0431 C339.91,327.0931 339.91,350.8531 339.91,369.9631" fill="none" id="aggMap-to-aggReduce" style="stroke:#181818;stroke-width:1;"/><polygon fill="#181818" points="339.91,375.9631,343.91,366.9631,339.91,370.9631,335.91,366.9631,339.91,375.9631" style="stroke:#181818;stroke-width:1;"/></g><!--link aggReduce to actionData--><g class="link" data-entity-1="aggReduce" data-entity-2="actionData" data-source-line="58" data-uid="lnk33" id="link_aggReduce_actionData"><path d="M333.57,412.7931 C333.57,424.4631 333.57,437.3331 333.57,437.3331 C333.57,437.3331 1161.74,437.3331 1161.74,437.3331 C1161.74,437.3331 1161.74,474.1231 1161.74,505.0431" fill="none" id="aggReduce-to-actionData" style="stroke:#181818;stroke-width:1;"/><polygon fill="#181818" points="1161.74,511.0431,1165.74,502.0431,1161.74,506.0431,1157.74,502.0431,1161.74,511.0431" style="stroke:#181818;stroke-width:1;"/></g><!--link cleanedData to trendMap--><g class="link" data-entity-1="cleanedData" data-entity-2="trendMap" data-source-line="60" data-uid="lnk34" id="link_cleanedData_trendMap"><path d="M959.8,510.9631 C959.8,453.3631 959.8,336.3331 959.8,336.3331 C959.8,336.3331 626.26,336.3331 626.26,336.3331 C626.26,336.3331 626.26,327.4231 626.26,314.4831" fill="none" id="cleanedData-to-trendMap" style="stroke:#181818;stroke-width:1;"/><polygon fill="#181818" points="626.26,308.4831,622.26,317.4831,626.26,313.4831,630.26,317.4831,626.26,308.4831" style="stroke:#181818;stroke-width:1;"/></g><!--link trendMap to trendReduce--><g class="link" data-entity-1="trendMap" data-entity-2="trendReduce" data-source-line="61" data-uid="lnk35" id="link_trendMap_trendReduce"><path d="M579.74,308.0431 C579.74,327.0931 579.74,350.8531 579.74,369.9631" fill="none" id="trendMap-to-trendReduce" style="stroke:#181818;stroke-width:1;"/><polygon fill="#181818" points="579.74,375.9631,583.74,366.9631,579.74,370.9631,575.74,366.9631,579.74,375.9631" style="stroke:#181818;stroke-width:1;"/></g><!--link trendReduce to trendingData--><g class="link" data-entity-1="trendReduce" data-entity-2="trendingData" data-source-line="62" data-uid="lnk36" id="link_trendReduce_trendingData"><path d="M602,412.7331 C602,437.3631 602,475.3531 602,505.1631" fill="none" id="trendReduce-to-trendingData" style="stroke:#181818;stroke-width:1;"/><polygon fill="#181818" points="602,511.1631,606,502.1631,602,506.1631,598,502.1631,602,511.1631" style="stroke:#181818;stroke-width:1;"/></g><!--link actionData to joinMap2--><g class="link" data-entity-1="actionData" data-entity-2="joinMap2" data-source-line="64" data-uid="lnk37" id="link_actionData_joinMap2"><path d="M1216.26,511.0931 C1216.26,443.7031 1216.26,290.3331 1216.26,290.3331 C1216.26,290.3331 1069.39,290.3331 986.69,290.3331" fill="none" id="actionData-to-joinMap2" style="stroke:#181818;stroke-width:1;"/><polygon fill="#181818" points="980.69,290.3331,989.69,294.3331,985.69,290.3331,989.69,286.3331,980.69,290.3331" style="stroke:#181818;stroke-width:1;"/></g><!--link profiles to joinMap1--><g class="link" data-entity-1="profiles" data-entity-2="joinMap1" data-source-line="65" data-uid="lnk38" id="link_profiles_joinMap1"><path d="M580.18,145.8331 C580.18,190.7131 580.18,268.3331 580.18,268.3331 C580.18,268.3331 670.74,268.3331 733.16,268.3331" fill="none" id="profiles-to-joinMap1" style="stroke:#181818;stroke-width:1;"/><polygon fill="#181818" points="739.16,268.3331,730.16,264.3331,734.16,268.3331,730.16,272.3331,739.16,268.3331" style="stroke:#181818;stroke-width:1;"/></g><!--link joinMap1 to joinReduce--><g class="link" data-entity-1="joinMap1" data-entity-2="joinReduce" data-source-line="66" data-uid="lnk39" id="link_joinMap1_joinReduce"><path d="M791.16,316.4731 C791.16,335.0931 791.16,353.4731 791.16,369.9431" fill="none" id="joinMap1-to-joinReduce" style="stroke:#181818;stroke-width:1;"/><polygon fill="#181818" points="791.16,375.9431,795.16,366.9431,791.16,370.9431,787.16,366.9431,791.16,375.9431" style="stroke:#181818;stroke-width:1;"/></g><!--link joinMap2 to joinReduce--><g class="link" data-entity-1="joinMap2" data-entity-2="joinReduce" data-source-line="67" data-uid="lnk40" id="link_joinMap2_joinReduce"><path d="M887.9,316.4831 C887.9,347.4431 887.9,394.3331 887.9,394.3331 C887.9,394.3331 875.12,394.3331 854.35,394.3331" fill="none" id="joinMap2-to-joinReduce" style="stroke:#181818;stroke-width:1;"/><polygon fill="#181818" points="848.35,394.3331,857.35,398.3331,853.35,394.3331,857.35,390.3331,848.35,394.3331" style="stroke:#181818;stroke-width:1;"/></g><!--link joinReduce to joinedData--><g class="link" data-entity-1="joinReduce" data-entity-2="joinedData" data-source-line="68" data-uid="lnk41" id="link_joinReduce_joinedData"><path d="M812.01,412.7331 C812.01,437.3631 812.01,475.3531 812.01,505.1631" fill="none" id="joinReduce-to-joinedData" style="stroke:#181818;stroke-width:1;"/><polygon fill="#181818" points="812.01,511.1631,816.01,502.1631,812.01,506.1631,808.01,502.1631,812.01,511.1631" style="stroke:#181818;stroke-width:1;"/></g><!--link cleanseMap to counters--><g class="link" data-entity-1="cleanseMap" data-entity-2="counters" data-source-line="71" data-uid="lnk42" id="link_cleanseMap_counters"><path d="M197.86,290.3331 C209.86,290.3331 218.63,290.3331 218.63,290.3331 C218.63,290.3331 218.63,536.3331 218.63,536.3331 C218.63,536.3331 252.91,536.3331 291.78,536.3331" fill="none" id="cleanseMap-to-counters" style="stroke:#181818;stroke-width:1;"/><polygon fill="#181818" points="297.78,536.3331,288.78,532.3331,292.78,536.3331,288.78,540.3331,297.78,536.3331" style="stroke:#181818;stroke-width:1;"/></g><!--link aggReduce to counters--><g class="link" data-entity-1="aggReduce" data-entity-2="counters" data-source-line="72" data-uid="lnk43" id="link_aggReduce_counters"><path d="M369,412.7331 C369,441.2331 369,489.6731 369,518.0331" fill="none" id="aggReduce-to-counters" style="stroke:#181818;stroke-width:1;"/><polygon fill="#181818" points="369,524.0331,373,515.0331,369,519.0331,365,515.0331,369,524.0331" style="stroke:#181818;stroke-width:1;"/></g><!--link trendReduce to counters--><g class="link" data-entity-1="trendReduce" data-entity-2="counters" data-source-line="73" data-uid="lnk44" id="link_trendReduce_counters"><path d="M529.32,394.3331 C499.21,394.3331 471.18,394.3331 471.18,394.3331 C471.18,394.3331 471.18,542.3331 471.18,542.3331 C471.18,542.3331 463.55,542.3331 446.24,542.3331" fill="none" id="trendReduce-to-counters" style="stroke:#181818;stroke-width:1;"/><polygon fill="#181818" points="440.24,542.3331,449.24,546.3331,445.24,542.3331,449.24,538.3331,440.24,542.3331" style="stroke:#181818;stroke-width:1;"/></g><!--link joinReduce to counters--><g class="link" data-entity-1="joinReduce" data-entity-2="counters" data-source-line="74" data-uid="lnk45" id="link_joinReduce_counters"><path d="M775.99,412.6731 C775.99,439.7931 775.99,487.3331 775.99,487.3331 C775.99,487.3331 404.43,487.3331 404.43,487.3331 C404.43,487.3331 404.43,501.7231 404.43,517.6531" fill="none" id="joinReduce-to-counters" style="stroke:#181818;stroke-width:1;"/><polygon fill="#181818" points="404.43,523.6531,408.43,514.6531,404.43,518.6531,400.43,514.6531,404.43,523.6531" style="stroke:#181818;stroke-width:1;"/></g><!--link counters to yarn--><g class="link" data-entity-1="counters" data-entity-2="yarn" data-source-line="76" data-uid="lnk46" id="link_counters_yarn"><path d="M297.67,548.3331 C266.6,548.3331 237.14,548.3331 237.14,548.3331 C237.14,548.3331 237.14,597.2131 237.14,626.7931" fill="none" id="counters-to-yarn" style="stroke:#181818;stroke-width:1;"/><polygon fill="#181818" points="237.14,632.7931,241.14,623.7931,237.14,627.7931,233.14,623.7931,237.14,632.7931" style="stroke:#181818;stroke-width:1;"/></g><!--link counters to logsUI--><g class="link" data-entity-1="counters" data-entity-2="logsUI" data-source-line="77" data-uid="lnk47" id="link_counters_logsUI"><path d="M369,560.7231 C369,580.7531 369,606.5431 369,626.6131" fill="none" id="counters-to-logsUI" style="stroke:#181818;stroke-width:1;"/><polygon fill="#181818" points="369,632.6131,373,623.6131,369,627.6131,365,623.6131,369,632.6131" style="stroke:#181818;stroke-width:1;"/></g><!--SRC=[VLHhQzim5FtkNt59OOyFNPPqj6i8WT1Icj9kem_6e10K-yhLuaX6acdJiV- -AyiFESvA8PNFFVVgwBxCMiYSQRQ15OlNgLQ5JCvKfZGSyCJzHQPXn6gJAudItjbjXg0njaoc6GQKJ4Yqsnn1QVka0eDvOebw5Z85gulG8q7EYipUuukTPoAL6ueFCVsWZY8hB5qqDU8L9wEli-bgTissg361kOwVX2K5XKOuX1kMts9In0W_bLxpJ3q3fpVSgLYm36um4GpcacLRAs8p7Qvcqw4BEekYvXKmeF0BcHSMoaiSQm07UCnFE8S_4K32B5inGqnJnbrkNDnbfbBpoRxOH_dXbZt3jKhXGcJuSG3CW3DsN0k3UfbhnObIkpqG1Zyy1Wl9bVUjMT7VNPd4ZT4ObyvGA-Vy28zBhG7_IgrWD85paW1d6JBf_DpBFlEJYWrjRM7WEUXocgCkbSGU8kH_P9_z3jj3v43oUuB64vZ7LYW9ypJLc39tTa-8NSBxecfMHnPBqpsIMceeYhXl2ZgQmBr6cRYSdgFhB2y8ZqaGwmjgo84Uwx0zYXfkAAWalodfYo-QGGjNIfJP6PCOtXVZp9KGQgUgauplejza8zFeRHzVZAxBUAzB-0P739xGwzCxgpHBiTEaoIaV9wSx0rMrJ58EqwCSgiBI80uxSDjRcBYyzCUA-KUq_Y7gkw0yzxnjLQ1bh6ZnIDj6g2rjoUYZv-_oG2gzJ-jSmOxNfAlItalLZPA2ikMwv1rypwtOYDToA9hPHfwiohG55RcahQfoEAErJGkpIb7rqMN-cjz-ezePLUYO1bbIMNmDjqpBQAVCAxV530cv58P4RU5XqMopXuKJ_zxlamlQj57aO3Wyd8LxeZs6bgfPEb-jlSfD57oKnchE_RyQgK8r9u-tzUr5QQQpFhHe5IiujxQwtb4RkpGsGrAlwH0THVMXGQixQhTzU71rq2gKww0vheLScrvswv9tiz70kmzh33ktDdXKdqguR94EuXlX7m00]--></g></svg>